<svg width="1474" height="242" viewBox="0 0 1474 242" fill="none" xmlns="http://www.w3.org/2000/svg">
<path d="M852.539 12.4498C870.912 12.4498 886.497 18.8486 899.294 31.6461V31.6672C912.092 44.4647 918.491 59.5641 918.491 76.9442V164.901C918.491 182.281 912.092 197.38 899.294 210.178C886.497 222.975 870.912 229.374 852.539 229.374H757.276V171.521L801.244 127.944V188.32H852.539C858.22 188.32 863.309 186.082 867.786 181.584C872.263 177.086 874.523 171.532 874.523 164.88V76.9442C874.523 70.3131 872.285 64.738 867.786 60.2399C863.288 55.7628 858.199 53.5032 852.539 53.5032H801.244V113.88L757.276 69.9119V12.4498H852.539Z" fill="#FFFFFF"/>
<path fill-rule="evenodd" clip-rule="evenodd" d="M214.592 70.4241L185.808 128.338L186.479 178.133L187.287 229.172H207.278H227.203V199.865V170.555H265.028H302.852L303.456 199.241V229.172H324.069H343.701V178.133L344.373 128.338L315.589 70.4241L286.805 12.5105H265.09H243.376L214.592 70.4241ZM407.688 14.7664C388.658 20.5686 368.662 41.385 363.386 60.883C357.568 82.39 366.183 108.809 384.182 124.653C398.021 136.835 409.491 140.245 436.619 140.245C461.919 140.245 469.737 142.871 475.058 153.164C479.47 161.694 479.182 168.07 474.004 176.563C468.059 186.314 461.183 188.33 436.712 187.505C417.246 186.847 415.209 186.355 409.879 181.019C406.584 177.721 403.533 171.687 402.765 166.946L401.422 158.648L381.426 158.024L361.433 157.403V166.063C361.433 187.732 378.794 213.487 399.926 223.167C408.777 227.222 414.062 227.854 439.373 227.888C465.337 227.923 469.808 227.371 479.425 222.95C521.508 203.597 531.645 150.663 499.326 119.026C484.785 104.793 473.493 100.983 441.797 99.6126C415.642 98.4846 414.311 98.1967 408.56 92.4443C398.441 82.3272 401.725 62.0131 414.414 56.2326C417.612 54.7755 429.593 53.6454 441.856 53.6454H455.776C460.799 53.6454 465.616 55.6408 469.168 59.1925L470.981 61.0064C476.186 66.211 478.342 70.3332 478.342 75.0788V81.7903H499.189H520.036L518.562 70.4241C515.643 47.8887 500.837 27.4381 480.83 18.304C472.475 14.4893 465.985 13.6211 442.62 13.2011C427.14 12.924 411.42 13.6276 407.688 14.7664ZM536.797 120.842V229.172H561.861H582.904V184.71V137.835H615.82H648.139V179.922V229.172H674.443H694.32V120.219L694.883 12.5105H674.294H648.139V34.7217V56.8174V99.1103H615.82H582.904V55.8104V12.5105H557.365H536.797V120.842ZM298.533 127.796C298.596 128.688 283.547 129.42 265.09 129.42C246.634 129.42 231.533 128.942 231.533 128.355C231.533 127.77 239.074 112.174 248.288 93.6978L265.045 60.1036L281.733 93.1371C290.91 111.308 298.47 126.904 298.533 127.796Z" fill="#FFFFFF"/>
<path d="M12.3662 229.172V120.842V12.5105H32.9337H58.4732V55.8104V99.1103H91.3886H123.708V56.8174V34.7217V12.5105H149.863H170.452L169.889 120.219V229.172H150.012H129.276V184.71V137.835H91.3886H58.4732V184.71V229.172H37.4297H12.3662Z" fill="#FFFFFF"/>
<path d="M1125.79 43.7233C1125.73 26.9533 1125.83 13.6783 1126.88 12.6261C1126.88 12.6261 1137.4 12.6261 1147.92 12.6261H1166.93L1166.93 39.0318L1167.04 67.7179L1185.89 105.081L1204.74 142.443L1223.66 104.523L1242.59 66.603V38.4754L1242.59 12.6261H1262.61H1283.72L1283.72 42.8313V75.3192L1244.48 153.776L1205.24 232.234L1165.57 153.224L1125.91 74.2129L1125.79 43.7233Z" fill="#FFFFFF"/>
<path d="M1321.53 28.9386C1327.01 23.6127 1336.57 17.2562 1342.79 14.8098C1352.55 10.9669 1358.05 10.443 1383.31 10.9518C1408.67 11.4627 1413.75 12.1793 1421.68 16.3686C1442.63 27.436 1455.7 45.9771 1458.36 68.3913L1459.69 79.6254H1438.82H1417.95V72.9139C1417.95 68.1683 1415.79 64.0461 1410.59 58.8415C1405.88 54.1283 1399.48 51.4805 1392.82 51.4805H1380.06H1367.31C1360.64 51.4805 1354.25 54.1283 1349.54 58.8415C1340.85 67.5317 1339.85 76.8607 1346.45 87.6857C1351.46 95.9018 1353.18 96.3543 1384.69 97.7313C1415.23 99.0649 1426.64 103.54 1441.8 120.122C1471.46 152.581 1460.98 201.335 1420.33 219.945C1404.37 227.25 1371.6 229.086 1351.07 223.827C1322.94 216.62 1303.6 194.093 1302.55 167.308L1302.12 156.483H1321.57H1341.02L1342.37 164.781C1343.14 169.52 1346.19 175.558 1349.49 178.854C1355.08 184.444 1356.07 184.628 1380.29 184.628H1405.32L1411.63 177.557C1418.89 169.438 1420.15 157.338 1414.57 149.375C1408.32 140.455 1400.26 138.08 1376.23 138.08C1349.2 138.08 1337.63 134.668 1324.02 122.685C1309.62 110.02 1302.09 93.2281 1302.26 74.2129C1302.43 55.1415 1307.98 42.1061 1321.53 28.9386Z" fill="#FFFFFF"/>
<path d="M952.477 118.595V226.845H1030.42H1108.36V206.278V185.71H1049.9H991.446V161.895V138.08H1035.91H1080.37L1080.37 136.783L1058.49 97.4411H1035.29L991.446 96.8566V74.1675V51.4805H1049.9H1108.36V30.913V10.3456H1030.42H952.477V118.595Z" fill="#FFFFFF"/>
<path d="M760.29 122.114L724.544 142.752V101.476L760.29 122.114Z" fill="#FFFFFF"/>
</svg>
