<svg width="49" height="48" viewBox="0 0 49 48" fill="none" xmlns="http://www.w3.org/2000/svg">
<rect x="0.5" width="48" height="48" rx="24" fill="#1F3584"/>
<path d="M23.0752 14.9463C23.8586 14.151 25.1414 14.151 25.9248 14.9463L26.9681 16.0053C27.3477 16.3906 27.867 16.6058 28.4078 16.6017L29.8945 16.5906C31.0108 16.5822 31.9178 17.4892 31.9094 18.6055L31.8983 20.0922C31.8942 20.633 32.1094 21.1523 32.4947 21.5319L33.5537 22.5752C34.349 23.3586 34.349 24.6414 33.5537 25.4248L32.4947 26.4681C32.1094 26.8477 31.8942 27.367 31.8983 27.9078L31.9094 29.3945C31.9178 30.5108 31.0108 31.4178 29.8945 31.4094L28.4078 31.3983C27.867 31.3942 27.3477 31.6094 26.9681 31.9947L25.9248 33.0537C25.1414 33.849 23.8586 33.849 23.0752 33.0537L22.0319 31.9947C21.6523 31.6094 21.133 31.3942 20.5921 31.3983L19.1055 31.4094C17.9892 31.4178 17.0822 30.5108 17.0906 29.3945L17.1017 27.9078C17.1058 27.367 16.8906 26.8477 16.5053 26.4681L15.4463 25.4248C14.651 24.6414 14.651 23.3586 15.4463 22.5752L16.5053 21.5319C16.8906 21.1523 17.1058 20.633 17.1017 20.0922L17.0906 18.6055C17.0822 17.4892 17.9892 16.5822 19.1055 16.5906L20.5922 16.6017C21.133 16.6058 21.6523 16.3906 22.0319 16.0053L23.0752 14.9463Z" stroke="white" stroke-width="2"/>
<path d="M28.5 22L24.125 26L21.5 24.1176" stroke="white" stroke-width="2" stroke-linecap="round" stroke-linejoin="round"/>
</svg>
