<svg width="49" height="48" viewBox="0 0 49 48" fill="none" xmlns="http://www.w3.org/2000/svg">
<rect x="0.5" width="48" height="48" rx="24" fill="#1F3584"/>
<path d="M33.5 22C33.5 27.1225 28.6804 31.7095 26.095 33.8016C25.1535 34.5634 23.8464 34.5634 22.905 33.8016C20.3196 31.7095 15.5 27.1225 15.5 22C15.5 19.6131 16.4482 17.3239 18.136 15.636C19.8239 13.9482 22.1131 13 24.5 13C26.8869 13 29.1761 13.9482 30.864 15.636C32.5518 17.3239 33.5 19.6131 33.5 22Z" stroke="white" stroke-width="2" stroke-linecap="round" stroke-linejoin="round"/>
<path d="M24.5 25C26.1569 25 27.5 23.6569 27.5 22C27.5 20.3431 26.1569 19 24.5 19C22.8431 19 21.5 20.3431 21.5 22C21.5 23.6569 22.8431 25 24.5 25Z" stroke="white" stroke-width="2" stroke-linecap="round" stroke-linejoin="round"/>
</svg>
