<svg width="25" height="24" viewBox="0 0 25 24" fill="none" xmlns="http://www.w3.org/2000/svg">
<path d="M22.4995 16.9199V19.9199C22.5006 20.1984 22.4435 20.474 22.332 20.7292C22.2204 20.9844 22.0568 21.2134 21.8515 21.4017C21.6463 21.59 21.404 21.7333 21.1402 21.8226C20.8764 21.9118 20.5968 21.9449 20.3195 21.9199C17.2423 21.5855 14.2864 20.534 11.6894 18.8499C9.27327 17.3145 7.22478 15.266 5.68945 12.8499C3.99942 10.2411 2.94769 7.27085 2.61944 4.17985C2.59446 3.90332 2.62732 3.62461 2.71595 3.36148C2.80457 3.09834 2.94702 2.85654 3.13421 2.65147C3.32141 2.44641 3.54925 2.28256 3.80324 2.17037C4.05722 2.05819 4.33179 2.00011 4.60945 1.99985H7.60945C8.09475 1.99508 8.56524 2.16693 8.93321 2.48339C9.30118 2.79984 9.54152 3.2393 9.60945 3.71985C9.73607 4.67992 9.9709 5.62258 10.3094 6.52985C10.444 6.88778 10.4731 7.27677 10.3934 7.65073C10.3136 8.0247 10.1283 8.36796 9.85945 8.63985L8.58945 9.90985C10.013 12.4134 12.0859 14.4863 14.5894 15.9099L15.8594 14.6399C16.1313 14.371 16.4746 14.1857 16.8486 14.1059C17.2225 14.0262 17.6115 14.0553 17.9694 14.1899C18.8767 14.5284 19.8194 14.7632 20.7795 14.8899C21.2652 14.9584 21.7089 15.2031 22.026 15.5773C22.3431 15.9516 22.5116 16.4294 22.4995 16.9199Z" fill="#15B2F5"/>
</svg>
