<svg width="64" height="65" viewBox="0 0 64 65" fill="none" xmlns="http://www.w3.org/2000/svg">
<rect width="64" height="65" rx="20" fill="#0D213A"/>
<path d="M33.4322 20.6728C33.8442 16.9389 36.3307 13.6632 39.7265 12.3805C40.5347 12.0751 41.8801 11.9414 43.3148 12.0239C48.3638 12.3136 52.0021 16.3477 52 21.6533C51.999 24.2051 51.4191 25.594 48.977 28.8944C48.1691 29.9867 47.2795 31.5068 47.0006 32.2728C46.7216 33.0388 46.3836 33.6266 46.2494 33.5785C46.1156 33.5305 45.4643 33.4915 44.8023 33.4915H43.5986V29.5407V25.5902L44.8023 24.3353C46.0741 23.0094 46.3921 21.5297 45.4815 21.1759C45.1685 21.0544 44.6575 21.3204 44.2156 21.835C43.4899 22.6801 41.5351 23.0735 41.5351 22.3744C41.5351 22.1968 41.2864 21.7995 40.9828 21.4921C40.5563 21.0603 40.3211 21.0248 39.951 21.3357C39.2309 21.9409 39.364 22.5491 40.5034 23.8632C41.531 25.0484 41.5351 25.0697 41.5351 29.3721C41.5351 33.5973 41.5183 33.6931 40.7613 33.7655C39.1143 33.9232 38.4791 33.5346 38.2356 32.2206C38.1066 31.5246 37.1602 29.7123 36.1326 28.1932C33.7383 24.6536 33.1681 23.0652 33.4322 20.6728Z" fill="white"/>
<path d="M14.9387 19.0057C16.054 16.8202 18.0876 15.5984 21.0143 15.3553C22.3703 15.2425 23.5833 15.1252 23.7095 15.0942C24.5745 14.8822 25.0274 15.5702 25.0274 17.0945C25.0274 18.9399 24.5978 19.5631 23.325 19.5663C22.8428 19.5673 21.8679 19.7313 21.1591 19.9305C19.3941 20.4266 18.837 21.6296 18.837 24.9436V27.5724H16.6081C14.5023 27.5724 14.3672 27.5229 14.1578 26.6793C13.743 25.0063 14.2079 20.4378 14.9387 19.0057Z" fill="white"/>
<path d="M12.0303 32.9605C11.9443 30.299 12.019 29.7802 12.5462 29.3826C13.0246 29.0215 14.7018 28.9421 20.0407 29.0281C26.4636 29.1319 27.0214 29.1932 28.4665 29.9529C32.0483 31.8366 33.9691 34.833 33.9691 38.5373C33.9691 40.5906 33.891 40.8486 33.1953 41.0993C32.5405 41.335 29.3552 41.3931 27.3897 41.2051C27.0334 41.171 26.6929 40.6066 26.457 39.6581C25.8896 37.3755 24.723 36.4684 22.3425 36.459L20.3846 36.451V42.641C20.3846 47.7631 20.2955 48.8885 19.8687 49.1642C19.2026 49.5942 15.3821 49.597 14.7101 49.1677C14.2943 48.9024 14.1608 47.6378 14.0222 42.6595L13.8503 36.481L12.9905 36.2769C12.1624 36.0806 12.127 35.9583 12.0303 32.9605Z" fill="white"/>
<path d="M41.3539 42.1713C39.4978 41.4562 38.6855 40.1731 38.507 37.6742L38.3574 35.5806H42.7388H47.1202L46.9706 37.6742C46.7887 40.2239 45.9692 41.4802 44.0371 42.1717C42.831 42.6031 42.4743 42.6031 41.3539 42.1713Z" fill="white"/>
<path d="M26.9894 48.7795C27.2601 47.6799 29.4116 44.3729 30.1352 43.9439C30.8374 43.5278 31.8581 44.6713 33.1554 47.3275C34.1995 49.4664 34.0774 50.4964 32.6024 51.9897C30.8639 53.7494 28.2344 53.1342 27.2446 50.7359C26.9908 50.1207 26.8759 49.2405 26.9894 48.7795Z" fill="white"/>
</svg>
