<svg width="64" height="64" viewBox="0 0 64 64" fill="none" xmlns="http://www.w3.org/2000/svg">
<rect width="64" height="64" rx="20" fill="#0D213A"/>
<path d="M21.1009 15.076C20.9131 13.4538 20.9711 12.9858 21.4149 12.5409C21.895 12.0596 23.0347 11.9959 31.0791 12.0002C36.0953 12.0032 40.4075 12.1376 40.6622 12.2991C41.0395 12.5386 41.0843 13.3488 40.9027 16.6706C40.7805 18.9134 40.5923 21.64 40.4849 22.73L40.2896 24.7118L31.0185 24.6504L21.7473 24.5886L21.5391 20.8268C21.4248 18.7581 21.2274 16.1699 21.1009 15.076Z" fill="white"/>
<path d="M38.2516 44.009C37.1046 42.6425 37.1748 41.8247 38.6285 39.612C39.3676 38.4867 40.0579 37.7779 40.3584 37.835C41.2026 37.9959 43 41.0132 43 42.27C43 44.8707 39.9212 45.9981 38.2516 44.009Z" fill="white"/>
<path fill-rule="evenodd" clip-rule="evenodd" d="M21.3493 26.5641C20.8851 27.0295 21.1621 30.9169 21.7645 32.384C22.2735 33.6247 23.9823 34.783 25.3059 34.7847C26.4526 34.7863 28.0253 35.5761 28.2975 36.2872C28.6319 37.1612 28.5307 39.3858 28.0124 42.5481C27.4233 46.1421 27.393 48.9691 27.936 49.6783C29.1018 51.2003 32.1759 51.4652 33.6732 50.1724C34.4903 49.4669 34.5928 49.164 34.5559 47.5624C34.5332 46.5658 34.2554 44.0344 33.9395 41.9373C33.6231 39.8403 33.4627 37.732 33.5826 37.2524C33.9391 35.8284 35.1682 34.863 36.9452 34.6116C38.9136 34.3328 39.8632 33.7644 40.535 32.4613C41.25 31.0761 41.5693 27.3536 41.0296 26.7016C40.6741 26.2718 39.2269 26.1982 31.1637 26.1982C24.6871 26.1982 21.5994 26.3134 21.3493 26.5641ZM31.5328 47.6327C30.6955 48.0819 29.6194 47.3467 29.9295 46.5374C30.0771 46.152 30.4339 46.0053 31.051 46.0767C32.1407 46.2029 32.434 47.1492 31.5328 47.6327Z" fill="white"/>
</svg>
