<svg width="40" height="40" viewBox="0 0 40 40" fill="none" xmlns="http://www.w3.org/2000/svg">
<path d="M33.3531 7.36161L29.3739 3.5514C27.9098 2.14953 25.526 2.14953 24.0619 3.5514L18.75 8.63767L22.7293 12.4479L26.7085 8.63767L33.3531 15C34.4079 13.9855 35 12.6123 35 11.1808C35 9.74932 34.4079 8.3761 33.3531 7.36161Z" fill="#6398ce"/>
<path d="M8.26937 22.9822C9.29521 24.0059 10.947 24.0059 11.9554 22.9822L16.25 18.6961L12.564 15L8.26937 19.2861C7.24354 20.3099 7.24354 21.9584 8.26937 22.9822Z" fill="#6398ce"/>
<path d="M25.5402 12.6679L30.7142 17.6822C30.8841 17.8462 31.0188 18.041 31.1108 18.2553C31.2027 18.4696 31.25 18.6993 31.25 18.9313C31.25 19.1633 31.2027 19.393 31.1108 19.6074C31.0188 19.8217 30.8841 20.0164 30.7142 20.1805C30.5443 20.3445 30.3427 20.4746 30.1207 20.5634C29.8988 20.6522 29.6609 20.6979 29.4207 20.6979C29.1805 20.6979 28.9426 20.6522 28.7207 20.5634C28.4987 20.4746 28.2971 20.3445 28.1272 20.1805L11.2657 36.4635C9.8346 37.8455 7.50445 37.8455 6.07334 36.4635C4.64222 35.0815 4.64222 32.8313 6.07334 31.4492L19.0451 18.9225L13.2106 13.2881C12.9532 13.0425 12.7488 12.7501 12.6093 12.4277C12.4698 12.1053 12.398 11.7594 12.398 11.41C12.398 11.0606 12.4698 10.7146 12.6093 10.3922C12.7488 10.0698 12.9532 9.77738 13.2106 9.53183C14.2747 8.48646 16.0178 8.48646 17.1003 9.54955L22.9348 15.1839L25.5402 12.6679Z" fill="#6398ce"/>
</svg>
