<svg width="40" height="38" viewBox="0 0 40 38" fill="none" xmlns="http://www.w3.org/2000/svg">
<path d="M5.85029 1.14383C5.85029 0.916788 6.13963 0.554781 6.49285 0.338835C7.95275 -0.553051 12.736 1.01071 14.5531 2.97419C16.3013 4.86261 16.8939 7.57672 16.0747 9.94325C15.6675 11.1195 15.7109 11.2238 17.1763 12.6001C18.0153 13.3884 18.7015 14.2296 18.7015 14.4704C18.7015 15.0154 15.0128 18.8133 14.4834 18.8133C14.27 18.8133 13.4659 18.2908 12.6963 17.6519C11.311 16.5019 11.2779 16.4948 9.30177 16.9404C8.20427 17.1878 6.81192 17.281 6.20755 17.1471C4.57508 16.7862 1.79078 13.6846 0.827675 11.1543C-0.0469415 8.85613 -0.284148 5.70679 0.386318 5.28969C0.626085 5.14031 1.97583 6.31729 3.63143 8.11955L6.46605 11.2049L8.00011 9.98134C10.9173 7.65438 10.9243 6.87748 8.05336 3.86681C6.84167 2.59591 5.85029 1.3705 5.85029 1.14383Z" fill="white"/>
<path d="M28.8727 4.94691C31.0063 2.91318 33.2667 0.964862 33.8964 0.617647C35.3295 -0.173292 36.4285 -0.201768 37.8069 0.515957C39.6956 1.49955 40.5798 4.39522 39.5906 6.35796C39.0071 7.51571 30.8246 15.8052 29.6434 16.4357C29.0978 16.7263 28.2243 16.9645 27.7018 16.9645C26.9693 16.9645 25.1143 18.5445 19.6007 23.8659C15.1777 28.1341 12.3464 31.1474 12.179 31.7638C11.7923 33.1907 6.84755 37.6716 5.9274 37.4294C4.86405 37.1491 2.91288 35.2223 2.91288 34.4524C2.91288 33.5313 7.7005 28.417 8.55713 28.4225C9.31755 28.4277 15.3969 22.6501 15.3969 21.922C15.3969 21.6702 17.1318 19.6849 19.2523 17.5106C21.3727 15.336 23.1091 13.3666 23.1113 13.1344C23.1131 12.9022 23.5376 11.7969 24.0542 10.6784C24.7555 9.16008 25.9771 7.70725 28.8727 4.94691Z" fill="white"/>
<path fill-rule="evenodd" clip-rule="evenodd" d="M23.347 23.2232C22.2055 24.4283 21.2718 25.6811 21.2718 26.0072C21.2718 26.7519 31.3137 37.3799 32.402 37.787C34.8279 38.6948 37.4276 36.5823 37.4276 33.7036C37.4276 32.0175 37.4063 31.9893 32.0077 26.5215C29.0265 23.5024 26.3256 21.0319 26.005 21.0319C25.6845 21.0319 24.4886 22.0181 23.347 23.2232ZM32.2915 34.3522C31.9834 33.7724 32.055 33.4681 32.6374 32.8816C33.4705 32.0426 34.3532 32.2168 34.6903 33.2861C35.1768 34.8303 33.0482 35.7762 32.2915 34.3522Z" fill="white"/>
</svg>
