<svg width="64" height="62" viewBox="0 0 64 62" fill="none" xmlns="http://www.w3.org/2000/svg">
<rect width="64" height="62" rx="20" fill="#0D213A"/>
<path fill-rule="evenodd" clip-rule="evenodd" d="M12.8342 30.5017C13.8226 29.1778 25.9988 16.8759 29.2522 13.9141C30.4087 12.8613 31.6373 12 31.9827 12C32.6916 12 51.4124 30.2415 51.8515 31.3601C52.6077 33.2876 50.3379 35.404 48.1721 34.7902C47.6173 34.6328 47.0687 34.5981 46.9526 34.7124C46.8369 34.8268 46.7421 37.9815 46.7421 41.7225C46.7421 48.2534 46.7102 48.5535 45.9404 49.2621C45.1644 49.9765 44.7173 50 31.868 50H18.5969L17.8381 49.0464C17.1313 48.159 17.0789 47.6241 17.0789 41.3186V34.5445L15.3069 34.7128C13.7105 34.8641 13.4557 34.7819 12.7434 33.8869C11.729 32.6126 11.7466 31.9587 12.8342 30.5017ZM20.0086 43.6667V45.6571H31.9105H43.8124V43.6667V41.6762H31.9105H20.0086V43.6667ZM20.1917 38.6L20.0819 36.5191L19.972 34.4381H31.9105H43.849L43.7391 36.5191L43.6293 38.6H31.9105H20.1917ZM21.3405 29.3559C20.4067 30.3428 19.6424 31.2385 19.6424 31.3463C19.6424 31.4545 25.1986 31.5429 31.9896 31.5429H44.3368L42.3475 29.5524L40.3583 27.5619H31.6985H23.0387L21.3405 29.3559ZM26.2595 24.3048L28.9003 21.7714C30.3526 20.3781 31.7109 19.2381 31.9186 19.2381C32.1266 19.2381 33.4413 20.3781 34.8402 21.7714L37.3839 24.3048H31.8219H26.2595Z" fill="white"/>
</svg>
