<svg width="40" height="40" viewBox="0 0 40 40" fill="none" xmlns="http://www.w3.org/2000/svg">
<path d="M28.6798 7.95491C28.1228 8.53427 27.8191 9.31084 27.8355 10.1138C27.8697 11.7858 29.2549 13.1136 30.9294 13.0795C31.7335 13.0631 32.4981 12.7284 33.0551 12.149L37.0855 7.95675C37.8824 9.53907 38.1685 11.3292 37.9043 13.0806C37.6401 14.832 36.8387 16.4585 35.6103 17.7363C34.3819 19.014 32.7871 19.88 31.0454 20.2151C29.3036 20.5501 27.5007 20.3378 25.8849 19.6073C23.7516 18.0194 22.8051 17.0995 21.5095 15.4132C20.7126 13.8308 20.4265 12.0407 20.6907 10.2893C20.9549 8.53792 21.7564 6.91137 22.9847 5.63367C24.2131 4.35596 25.808 3.48994 27.5497 3.15486C29.2914 2.81978 31.0943 3.03212 32.7102 3.76264L28.6798 7.95491Z" fill="white"/>
<path d="M13.6158 23.7867L18.0138 27.9567L11.4846 34.8829C10.9276 35.4622 10.1629 35.7969 9.35881 35.8133C8.5547 35.8297 7.77699 35.5264 7.19678 34.9703C6.61658 34.4141 6.2814 33.6506 6.26498 32.8476C6.24856 32.0447 6.55225 31.2681 7.10923 30.6888L13.6158 23.7867Z" fill="white"/>
<path d="M19.1656 16.3033L33.4581 29.8551C34.8708 31.1946 34.946 33.4182 33.6269 34.8499C32.2781 36.3138 29.99 36.3909 28.5454 35.0212L14.2529 21.4694C13.0889 20.3657 12.8329 18.662 13.5166 17.2954L6.88164 10.8993L5.65128 12.1291L2 7.21055L4.25829 4.71639L9.53806 8.24414L8.31768 9.46395L14.9038 15.813C16.2384 15.0306 17.9841 15.183 19.1656 16.3033Z" fill="white"/>
</svg>
