<svg width="64" height="59" viewBox="0 0 64 59" fill="none" xmlns="http://www.w3.org/2000/svg">
<rect width="64" height="59" rx="20" fill="#0D213A"/>
<path d="M42.3336 44.4522C41.1978 42.0865 41.7805 40.0981 44.7466 36.2199C46.9327 33.361 47.3537 33.4202 49.7635 36.9262C52.3373 40.6707 52.6715 43.2195 50.8597 45.2839C49.7125 46.5908 48.7438 47.0014 46.8112 47C44.6942 46.9986 43.1282 46.1075 42.3336 44.4522Z" fill="white"/>
<path fill-rule="evenodd" clip-rule="evenodd" d="M12 13.0896L12.7871 12.545C13.4684 12.0732 15.54 12 28.2499 12C41.4091 12 42.9929 12.0599 43.5732 12.5793C44.1638 13.1074 44.2208 13.847 44.2208 20.9754C44.2208 28.7293 44.212 28.8199 43.132 32.2091C42.5329 34.0883 41.5072 36.4135 40.8521 37.376C39.1565 39.8681 38.8396 40.8996 39.1104 43.0431C39.2907 44.4697 39.2107 45.1043 38.7652 45.7763L38.1852 46.6514H25.7402C14.6566 46.6514 13.224 46.588 12.6476 46.0721C12.0379 45.5268 12 44.5425 12 29.2914V13.0896ZM17.452 40.8429C17.3472 41.1131 17.3122 41.8614 17.3748 42.5055L17.4882 43.6763L25.8974 43.7701L34.3067 43.8639V42.32C34.3067 41.2349 34.1403 40.713 33.7465 40.5636C33.4385 40.4467 29.6892 40.3511 25.4148 40.3511C19.0673 40.3511 17.6078 40.4411 17.452 40.8429ZM17.3111 37.551V35.4509V33.3508H25.8089H34.3067V35.4509V37.551H25.8089H17.3111ZM21.6797 27.0499C20.7311 27.4283 20.2939 28.661 20.866 29.3425C21.5129 30.1132 34.3743 30.0884 35.0237 29.3152C35.3672 28.906 35.3792 28.5763 35.0743 27.9151L34.676 27.0506H29.0321C25.9279 27.0506 23.176 26.9816 22.9168 26.8976C22.6573 26.8133 22.1007 26.8819 21.6797 27.0499ZM13.4163 28.7709C13.4163 28.4468 16.5417 25.1707 20.3618 21.4906C24.1816 17.8109 27.569 14.8001 27.8891 14.8001C28.8189 14.8001 42.5251 28.5511 42.2645 29.2224C42.0057 29.8889 40.9389 30.2252 40.3076 29.8395C40.0594 29.688 37.1765 26.9183 33.9009 23.6845L27.9454 17.8053L21.6142 24.003C18.1322 27.4118 15.0542 30.2007 14.7745 30.2007C14.0887 30.2007 13.4163 29.493 13.4163 28.7709Z" fill="white"/>
</svg>
